<svg width="489" height="199" viewBox="0 0 489 199" fill="none" xmlns="http://www.w3.org/2000/svg">
<g clip-path="url(#clip0_795_2)">
<path d="M166.8 4.8C168.5 4.2 170.3 3.6 172.1 3.1C179.7 1 188.7 0 199.2 0H488.3L460.5 36.1H195.9C193.7 36.1 191.5 36.3 189.3 36.6C186.2 24.8 179.3 14.4 169.7 6.9C168.7 6.2 167.8 5.5 166.8 4.8Z" fill="white"/>
<path d="M140.5 51.8C140.6 47.3 138.6 43 134.9 40.3C131.2 37.5 126.1 36.1 119.4 36H0L28.4 2.05976e-05H115.5C124.6 -0.0999794 133.7 1.10002 142.4 3.80002C150.1 6.00002 157.4 9.60002 163.8 14.5C169.4 18.9 174 24.5 177.1 30.9C179.5 36 181 41.5 181.4 47.1C181.7 49.9 182.7 51.9 184.8 53.2C187.2 54.7 190.9 55.4 195.9 55.4H271.4C288.4 55.4 301.3 58.5 310.2 64.8C319.1 71.1 323.5 80.6 323.5 93.3C323.6 99.8 322.5 106.3 320.2 112.4C318 118 314.3 123 309.6 126.7C304.8 130.6 298.6 133.5 291 135.6C283.5 137.7 274.4 138.7 263.9 138.7H134.7L162.3 103H267.3C272.4 103 276.2 102.2 278.5 100.6C280.8 99 282 96.4 282 92.8C282 89.2 280.8 86.7 278.5 85.1C276.1 83.6 272.4 82.8 267.3 82.8H191.8C184 82.9 176.1 82 168.6 79.9C162.7 78.3 157.2 75.5 152.4 71.8C148.2 68.5 144.9 64.2 142.9 59.3C141.8 57 141.1 54.4 140.5 51.8Z" fill="#2EA999"/>
<path d="M164.2 88.8L163.7 89.2C157.2 93.9 150 97.4 142.2 99.6C133.5 102.2 124.4 103.5 115.3 103.3H42.7V138.8H0V67.8H119.5C125.8 67.8 130.7 66.5 134.3 63.9C137 70 141.1 75.3 146.3 79.4C151.7 83.6 157.7 86.8 164.2 88.8Z" fill="white"/>
<path d="M395.4 52.1H484.2V138.8H389C377.6 138.9 366.3 137.1 355.6 133.4C345.9 130.1 337 125.1 329.2 118.6L328.3 117.8C328.6 117.2 328.8 116.5 329.1 115.9C331.8 108.7 333.2 101 333.1 93.3C333.1 78.6 328 65.6 315.8 57C313.2 55.1 310.3 53.5 307.4 52.2V52H353.9C352.9 53.4 352.1 54.8 351.3 56.3C349.2 60.5 348.1 65.2 348.2 69.9C348 79.3 352.3 88.2 359.7 94C363.6 97 368 99.3 372.7 100.7C378 102.3 383.5 103.1 389.1 103.1H441.6V83H369.8L395.4 52.1Z" fill="white"/>
<path d="M101.4 162.6V165.4H89.0999V197.9H85.6999V165.4H73.3999V162.6H101.4Z" fill="white"/>
<path d="M133.1 162.6V165.4H112V178.2H131.7V181.1H112V195H133.3V197.9H108.7V162.6H133.1Z" fill="white"/>
<path d="M166.3 169.6C165.6 168.6 164.8 167.6 163.8 166.9C162.8 166.2 161.7 165.6 160.6 165.2C159.4 164.8 158.2 164.6 156.9 164.6C154.8 164.6 152.8 165 150.9 165.9C149.3 166.7 147.9 168 146.8 169.4C145.7 170.9 144.9 172.6 144.4 174.4C143.4 178.1 143.4 182 144.4 185.8C144.9 187.6 145.7 189.3 146.8 190.8C147.9 192.3 149.3 193.5 150.9 194.3C152.8 195.2 154.8 195.7 156.9 195.6C158.4 195.6 159.9 195.3 161.3 194.7C162.6 194.1 163.8 193.3 164.7 192.3C165.7 191.2 166.5 190 167 188.7C167.6 187.3 168 185.8 168.1 184.3H171.5C171.3 186.3 170.8 188.3 170 190.2C169.3 191.9 168.2 193.4 166.9 194.7C165.6 195.9 164.1 196.9 162.5 197.5C160.7 198.2 158.8 198.5 156.8 198.5C154.3 198.6 151.8 198 149.5 197C147.5 196.1 145.7 194.7 144.3 193C142.9 191.3 141.8 189.3 141.2 187.2C139.8 182.6 139.8 177.8 141.2 173.2C141.9 171.1 142.9 169.1 144.3 167.3C145.7 165.6 147.5 164.2 149.5 163.2C153.4 161.5 157.7 161.2 161.7 162.4C163.3 162.9 164.7 163.6 166 164.6C167.3 165.6 168.4 166.8 169.3 168.2C170.2 169.7 170.8 171.4 171 173.1H167.6C167.5 172 167 170.8 166.3 169.6Z" fill="white"/>
<path d="M184.5 162.6L205.1 192.4H205.2V162.6H208.5V197.9H204.8L184.2 168H184.1V197.9H180.7V162.6H184.5Z" fill="white"/>
<path d="M218.7 173.3C219.4 171.2 220.4 169.2 221.8 167.4C223.2 165.7 225 164.3 227 163.3C229.3 162.3 231.8 161.7 234.3 161.8C236.8 161.7 239.3 162.3 241.6 163.3C243.6 164.3 245.4 165.6 246.8 167.4C248.2 169.1 249.3 171.1 249.9 173.3C251.3 177.9 251.3 182.7 249.9 187.3C249.2 189.4 248.2 191.4 246.8 193.1C245.4 194.8 243.6 196.2 241.6 197.1C239.3 198.2 236.8 198.7 234.3 198.6C231.8 198.7 229.3 198.1 227 197.1C225 196.2 223.2 194.8 221.8 193.1C220.4 191.4 219.3 189.4 218.7 187.3C217.3 182.7 217.3 177.8 218.7 173.3ZM221.8 185.9C222.3 187.7 223.1 189.4 224.2 190.9C225.3 192.4 226.7 193.6 228.3 194.4C232.1 196.2 236.5 196.2 240.4 194.4C242 193.5 243.4 192.3 244.5 190.9C245.6 189.4 246.4 187.7 246.9 185.9C247.9 182.2 247.9 178.3 246.9 174.5C246.4 172.7 245.6 171 244.5 169.5C243.4 168 242 166.8 240.4 166C236.6 164.2 232.2 164.2 228.3 166C226.7 166.8 225.2 168.1 224.2 169.5C223.1 171 222.3 172.7 221.8 174.5C220.8 178.2 220.8 182.2 221.8 185.9Z" fill="white"/>
<path d="M263.6 162.6V195H283.4V197.9H260.2V162.6H263.6Z" fill="white"/>
<path d="M289.9 173.3C290.6 171.2 291.6 169.2 293 167.4C294.4 165.7 296.2 164.3 298.2 163.3C302.9 161.3 308.1 161.3 312.8 163.3C314.8 164.3 316.6 165.6 318 167.4C319.4 169.1 320.5 171.1 321.1 173.3C322.5 177.9 322.5 182.7 321.1 187.3C320.4 189.4 319.4 191.4 318 193.1C316.6 194.8 314.8 196.2 312.8 197.1C308.1 199.1 302.9 199.1 298.2 197.1C296.2 196.2 294.4 194.8 293 193.1C291.6 191.4 290.5 189.4 289.9 187.3C288.5 182.7 288.5 177.8 289.9 173.3ZM293 185.9C293.5 187.7 294.3 189.4 295.4 190.9C296.5 192.4 297.9 193.6 299.5 194.4C303.3 196.2 307.7 196.2 311.5 194.4C313.1 193.5 314.5 192.3 315.6 190.9C316.7 189.4 317.5 187.7 318 185.9C319 182.2 319 178.3 318 174.5C317.5 172.7 316.7 171 315.6 169.5C314.5 168 313.1 166.8 311.5 166C307.7 164.2 303.3 164.2 299.5 166C297.9 166.8 296.4 168.1 295.4 169.5C294.3 171 293.5 172.7 293 174.5C292 178.2 292 182.2 293 185.9Z" fill="white"/>
<path d="M359.2 197.9L358.8 191.5H358.7C358.1 192.7 357.4 193.8 356.5 194.7C355.7 195.6 354.7 196.3 353.6 196.9C352.5 197.5 351.4 197.9 350.2 198.2C349 198.5 347.7 198.6 346.5 198.6C344 198.7 341.5 198.1 339.2 197.1C337.2 196.2 335.4 194.8 334 193.1C332.6 191.4 331.5 189.4 330.9 187.3C329.5 182.7 329.5 177.9 330.9 173.3C331.6 171.2 332.6 169.2 334 167.4C335.4 165.7 337.2 164.3 339.2 163.3C341.5 162.3 344 161.7 346.5 161.8C348.3 161.8 350 162 351.8 162.5C353.4 163 354.9 163.7 356.2 164.7C357.5 165.7 358.6 167 359.5 168.4C360.4 170 361.1 171.7 361.3 173.5H357.9C357.8 172.4 357.4 171.4 356.9 170.4C356.3 169.3 355.5 168.4 354.6 167.5C353.6 166.6 352.4 165.9 351.1 165.4C349.6 164.8 348.1 164.6 346.5 164.6C344.4 164.6 342.4 165 340.5 165.9C338.9 166.7 337.5 168 336.4 169.4C335.3 170.9 334.5 172.6 334 174.4C333 178.1 333 182 334 185.8C334.5 187.6 335.3 189.3 336.4 190.8C337.5 192.3 338.9 193.5 340.5 194.3C342.4 195.2 344.4 195.7 346.5 195.6C348.3 195.6 350.1 195.3 351.7 194.6C353.2 194 354.5 193.1 355.6 191.9C356.7 190.7 357.5 189.3 358 187.8C358.5 186.1 358.8 184.4 358.8 182.6H346.8V179.7H361.8V197.7L359.2 197.9Z" fill="white"/>
<path d="M375.7 162.6H372.3V197.9H375.7V162.6Z" fill="white"/>
<path d="M401.1 162.6L415 197.9H411.4L407.1 186.9H391L386.7 197.9H383.1L397.3 162.6H401.1V162.6ZM405.9 184L399.1 165.9L392 184H405.9Z" fill="white"/>
</g>
<defs>
<clipPath id="clip0_795_2">
<rect width="488.4" height="198.6" fill="white"/>
</clipPath>
</defs>
</svg>
